<!-- icon666.com - MILLIONS OF FREE VECTOR ICONS --><svg fill="none" viewBox="0 0 26 26" xmlns="http://www.w3.org/2000/svg" xmlns:xlink="http://www.w3.org/1999/xlink"><linearGradient id="paint0_linear_75_301" gradientUnits="userSpaceOnUse" x1="13" x2="13" y1=".325" y2="25.675"><stop offset="0" stop-color="#3747d6"></stop><stop offset="1" stop-color="#9545ed"></stop></linearGradient><clipPath id="clip0_75_301"><path d="m0 0h26v26h-26z"></path></clipPath><g clip-path="url(#clip0_75_301)" clip-rule="evenodd" fill="url(#paint0_linear_75_301)" fill-rule="evenodd"><path d="m13 2.2752c-5.92324 0-10.72499 4.80174-10.72499 10.725 0 5.9232 4.80175 10.725 10.72499 10.725 5.9232 0 10.725-4.8018 10.725-10.725 0-2.555-.8922-4.899-2.3829-6.74122-.3388-.4186-.274-1.03252.1446-1.37125s1.0326-.27399 1.3712.14461c1.7614 2.17668 2.8171 4.9503 2.8171 7.96786 0 7.0002-5.6747 12.675-12.675 12.675-7.0002 0-12.674988-5.6748-12.674988-12.675 0-7.00022 5.674788-12.675005 12.674988-12.675005 1.4797 0 2.9021.253962 4.2249.721485.5078.17944.7739.73648.5943 1.24418-.1794.5077-.7364.7738-1.2441.59436-1.1169-.39478-2.3198-.61002-3.5751-.61002z"></path><path d="m13 7.4752c-1.6154 0-2.925 1.30956-2.925 2.925 0 1.6154 1.3096 2.925 2.925 2.925s2.925-1.3096 2.925-2.925c0-1.61544-1.3096-2.925-2.925-2.925zm-4.87499 2.925c0-2.6924 2.18259-4.875 4.87499-4.875s4.875 2.1826 4.875 4.875-2.1826 4.875-4.875 4.875-4.87499-2.1826-4.87499-4.875z"></path><path d="m13 18.5252c-2.8932 0-5.43408 1.5115-6.87492 3.7926-.28757.4553-.88975.5913-1.34502.3037-.45526-.2876-.5912-.8897-.30364-1.345 1.78308-2.8229 4.93365-4.7013 8.52358-4.7013 3.5901 0 6.7406 1.8784 8.5237 4.7013.2876.4553.1516 1.0574-.3037 1.345-.4552.2876-1.0574.1516-1.3449-.3037-1.441-2.2811-3.9818-3.7926-6.8751-3.7926z"></path></g></svg>