<!-- icon666.com - MILLIONS OF FREE VECTOR ICONS --><svg id="Capa_1" enable-background="new 0 0 512 512" viewBox="0 0 512 512" xmlns="http://www.w3.org/2000/svg"><g><path d="m512 260.501h-30v-71.494c0-26.461-18.956-48.569-44-53.48v-15.02c0-30.055-24.451-54.506-54.505-54.506h-50.35l-35.146-52.502-82.826 52.502h-165.923c-27.157 0-49.25 22.094-49.25 49.25v321.812c0 33.877 27.562 61.438 61.439 61.438h366.056c30.054 0 54.505-24.451 54.505-54.506v-71.494h30zm-128.505-164.5c13.512 0 24.505 10.993 24.505 24.506v13.994h-29l-25.773-38.5zm-40.597 38.5h-179.756l126.204-79.998zm-293.648-38.5h118.595l-60.737 38.5c-5.608 0-54.337 0-57.858 0-10.614 0-19.25-8.636-19.25-19.25s8.636-19.25 19.25-19.25zm402.75 347.994c0 13.513-10.993 24.506-24.505 24.506h-366.056c-17.335 0-31.439-14.104-31.439-31.439v-276.482c5.917 2.522 12.423 3.921 19.25 3.921h8.75 369.495c13.512 0 24.505 10.993 24.505 24.506v71.494h-109v112h109zm30-101.494h-109v-52h109z"></path><path d="m343 403.001h72v30h-72z"></path></g></svg>